<?xml version="1.0" encoding="UTF-8" standalone="no"?>
<!-- Created with Inkscape (http://www.inkscape.org/) -->

<svg
   xmlns:dc="http://purl.org/dc/elements/1.1/"
   xmlns:cc="http://creativecommons.org/ns#"
   xmlns:rdf="http://www.w3.org/1999/02/22-rdf-syntax-ns#"
   xmlns:svg="http://www.w3.org/2000/svg"
   xmlns="http://www.w3.org/2000/svg"
   version="1.0"
   width="322pt"
   height="283pt"
   id="svg5874">
  <defs
     id="defs5876" />
  <metadata
     id="metadata5879">
    <rdf:RDF>
      <cc:Work
         rdf:about="">
        <dc:format>image/svg+xml</dc:format>
        <dc:type
           rdf:resource="http://purl.org/dc/dcmitype/StillImage" />
        <dc:title></dc:title>
      </cc:Work>
    </rdf:RDF>
  </metadata>
  <g
     id="layer1"
     style="display:inline" />
  <g
     id="layer2"
     style="display:inline" />
  <g
     id="layer3">
    <g
       id="g3103">
      <path
         d="m 106.25,311.25 -87.5,-37.5 0,-250 87.5,37.5"
         id="path5888"
         style="fill:none;stroke:#000000;stroke-width:2.5;stroke-linecap:butt;stroke-linejoin:miter;stroke-miterlimit:4;stroke-opacity:1;stroke-dasharray:none;display:inline" />
      <path
         d="m 18.75,23.75 250,0 87.5,37.5"
         id="path5890"
         style="fill:none;stroke:#000000;stroke-width:2.5;stroke-linecap:butt;stroke-linejoin:miter;stroke-miterlimit:4;stroke-opacity:1;stroke-dasharray:none;display:inline" />
      <path
         d="m 268.75,23.75 0,250 87.5,37.5"
         id="path6765"
         style="fill:none;stroke:#8c8c8c;stroke-width:2.5;stroke-linecap:butt;stroke-linejoin:miter;stroke-miterlimit:4;stroke-opacity:1;stroke-dasharray:none;display:inline" />
      <path
         d="m 268.75,273.75 -250,0"
         id="path6767"
         style="fill:none;stroke:#8c8c8c;stroke-width:2.5;stroke-linecap:butt;stroke-linejoin:miter;stroke-miterlimit:4;stroke-opacity:1;stroke-dasharray:none;display:inline" />
      <path
         d="m 268.75,23.75 -162.5,287.5"
         id="path6793"
         style="fill:none;stroke:#8c8c8c;stroke-width:2.5;stroke-linecap:butt;stroke-linejoin:miter;stroke-miterlimit:4;stroke-opacity:1;stroke-dasharray:none;display:inline" />
      <path
         d="M 18.75,273.75 356.25,61.25"
         id="path6795"
         style="fill:none;stroke:#8c8c8c;stroke-width:2.5;stroke-linecap:butt;stroke-linejoin:miter;stroke-miterlimit:4;stroke-opacity:1;stroke-dasharray:none;display:inline" />
      <path
         d="m 18.75,23.75 337.5,287.5"
         id="path6791"
         style="fill:none;stroke:#8c8c8c;stroke-width:2.5;stroke-linecap:butt;stroke-linejoin:miter;stroke-miterlimit:4;stroke-opacity:1;stroke-dasharray:none;display:inline" />
      <path
         d="M 268.75,273.75 106.25,61.25"
         id="path6797"
         style="fill:none;stroke:#8c8c8c;stroke-width:2.5;stroke-linecap:butt;stroke-linejoin:miter;stroke-miterlimit:4;stroke-opacity:1;stroke-dasharray:none;display:inline" />
      <rect
         width="250"
         height="250"
         x="106.25"
         y="61.25"
         id="rect6869"
         style="fill:none;stroke:#000000;stroke-width:2.5;stroke-linecap:round;stroke-miterlimit:4;stroke-opacity:1;stroke-dasharray:none;stroke-dashoffset:0;display:inline" />
      <path
         d="m 200,6.25 a 6.25,6.25 0 1 1 -12.5,0 6.25,6.25 0 1 1 12.5,0 z"
         transform="translate(-6.25,161.25)"
         id="path6769"
         style="fill:#8c8c8c;fill-opacity:1;stroke:#8c8c8c;stroke-width:0;stroke-linecap:round;stroke-miterlimit:4;stroke-opacity:1;stroke-dasharray:none;stroke-dashoffset:0;display:inline" />
      <path
         d="m 200,6.25 a 6.25,6.25 0 1 1 -12.5,0 6.25,6.25 0 1 1 12.5,0 z"
         transform="translate(-175,17.5)"
         id="path6771"
         style="fill:#000000;fill-opacity:1;stroke:#8c8c8c;stroke-width:0;stroke-linecap:round;stroke-miterlimit:4;stroke-opacity:1;stroke-dasharray:none;stroke-dashoffset:0;display:inline" />
      <path
         d="m 200,6.25 a 6.25,6.25 0 1 1 -12.5,0 6.25,6.25 0 1 1 12.5,0 z"
         transform="translate(-87.5,55)"
         id="path6773"
         style="fill:#000000;fill-opacity:1;stroke:#8c8c8c;stroke-width:0;stroke-linecap:round;stroke-miterlimit:4;stroke-opacity:1;stroke-dasharray:none;stroke-dashoffset:0;display:inline" />
      <path
         d="m 200,6.25 a 6.25,6.25 0 1 1 -12.5,0 6.25,6.25 0 1 1 12.5,0 z"
         transform="translate(75,17.5)"
         id="path6775"
         style="fill:#000000;fill-opacity:1;stroke:#8c8c8c;stroke-width:0;stroke-linecap:round;stroke-miterlimit:4;stroke-opacity:1;stroke-dasharray:none;stroke-dashoffset:0;display:inline" />
      <path
         d="m 200,6.25 a 6.25,6.25 0 1 1 -12.5,0 6.25,6.25 0 1 1 12.5,0 z"
         transform="translate(162.5,55)"
         id="path6777"
         style="fill:#000000;fill-opacity:1;stroke:#8c8c8c;stroke-width:0;stroke-linecap:round;stroke-miterlimit:4;stroke-opacity:1;stroke-dasharray:none;stroke-dashoffset:0;display:inline" />
      <path
         d="m 200,6.25 a 6.25,6.25 0 1 1 -12.5,0 6.25,6.25 0 1 1 12.5,0 z"
         transform="translate(162.5,305)"
         id="path6779"
         style="fill:#000000;fill-opacity:1;stroke:#8c8c8c;stroke-width:0;stroke-linecap:round;stroke-miterlimit:4;stroke-opacity:1;stroke-dasharray:none;stroke-dashoffset:0;display:inline" />
      <path
         d="m 200,6.25 a 6.25,6.25 0 1 1 -12.5,0 6.25,6.25 0 1 1 12.5,0 z"
         transform="translate(75,267.5)"
         id="path6781"
         style="fill:#8c8c8c;fill-opacity:1;stroke:#8c8c8c;stroke-width:0;stroke-linecap:round;stroke-miterlimit:4;stroke-opacity:1;stroke-dasharray:none;stroke-dashoffset:0;display:inline" />
      <path
         d="m 200,6.25 a 6.25,6.25 0 1 1 -12.5,0 6.25,6.25 0 1 1 12.5,0 z"
         transform="translate(-175,267.5)"
         id="path6783"
         style="fill:#000000;fill-opacity:1;stroke:#8c8c8c;stroke-width:0;stroke-linecap:round;stroke-miterlimit:4;stroke-opacity:1;stroke-dasharray:none;stroke-dashoffset:0;display:inline" />
      <path
         d="m 200,6.25 a 6.25,6.25 0 1 1 -12.5,0 6.25,6.25 0 1 1 12.5,0 z"
         transform="translate(-87.5,305)"
         id="path6785"
         style="fill:#000000;fill-opacity:1;stroke:#8c8c8c;stroke-width:0;stroke-linecap:round;stroke-miterlimit:4;stroke-opacity:1;stroke-dasharray:none;stroke-dashoffset:0;display:inline" />
      <text
         x="219.90234"
         y="346.15234"
         id="text1340"
         xml:space="preserve"
         style="font-size:40px;font-style:normal;font-variant:normal;font-weight:bold;font-stretch:normal;text-align:start;line-height:125%;writing-mode:lr-tb;text-anchor:start;fill:#000000;fill-opacity:1;stroke:none;font-family:Bitstream Vera Sans"><tspan
           x="219.90234"
           y="346.15234"
           id="tspan1342">a</tspan></text>
      <text
         x="368.18359"
         y="196.15234"
         id="text1344"
         xml:space="preserve"
         style="font-size:40px;font-style:normal;font-variant:normal;font-weight:bold;font-stretch:normal;text-align:start;line-height:125%;writing-mode:lr-tb;text-anchor:start;fill:#000000;fill-opacity:1;stroke:none;font-family:Bitstream Vera Sans"><tspan
           x="368.18359"
           y="196.15234"
           id="tspan1346">a</tspan></text>
      <text
         x="30.683594"
         y="321.15234"
         id="text1348"
         xml:space="preserve"
         style="font-size:40px;font-style:normal;font-variant:normal;font-weight:bold;font-stretch:normal;text-align:start;line-height:125%;writing-mode:lr-tb;text-anchor:start;fill:#000000;fill-opacity:1;stroke:none;font-family:Bitstream Vera Sans"><tspan
           x="30.683594"
           y="321.15234"
           id="tspan1350">a</tspan></text>
    </g>
  </g>
</svg>
