<?xml version="1.0" encoding="UTF-8" standalone="no"?>
<!-- Created with Inkscape (http://www.inkscape.org/) -->

<svg
   version="1.1"
   width="835.64502"
   height="757.74768"
   id="svg2985"
   sodipodi:docname="fcc.svg"
   inkscape:version="1.2.2 (b0a8486541, 2022-12-01)"
   xmlns:inkscape="http://www.inkscape.org/namespaces/inkscape"
   xmlns:sodipodi="http://sodipodi.sourceforge.net/DTD/sodipodi-0.dtd"
   xmlns="http://www.w3.org/2000/svg"
   xmlns:svg="http://www.w3.org/2000/svg"
   xmlns:rdf="http://www.w3.org/1999/02/22-rdf-syntax-ns#"
   xmlns:cc="http://creativecommons.org/ns#"
   xmlns:dc="http://purl.org/dc/elements/1.1/">
  <sodipodi:namedview
     id="namedview41"
     pagecolor="#ffffff"
     bordercolor="#000000"
     borderopacity="0.25"
     inkscape:showpageshadow="2"
     inkscape:pageopacity="0.0"
     inkscape:pagecheckerboard="0"
     inkscape:deskcolor="#d1d1d1"
     showgrid="false"
     inkscape:zoom="0.32502565"
     inkscape:cx="-129.22057"
     inkscape:cy="-16.921741"
     inkscape:window-width="1920"
     inkscape:window-height="1004"
     inkscape:window-x="0"
     inkscape:window-y="26"
     inkscape:window-maximized="1"
     inkscape:current-layer="svg2985" />
  <metadata
     id="metadata2991">
    <rdf:RDF>
      <cc:Work
         rdf:about="">
        <dc:format>image/svg+xml</dc:format>
        <dc:type
           rdf:resource="http://purl.org/dc/dcmitype/StillImage" />
      </cc:Work>
    </rdf:RDF>
  </metadata>
  <defs
     id="defs2989" />
  <g
     id="g346"
     transform="translate(-1.1298847e-5,1.1274e-5)">
    <path
       d="M 538.46776,105.42759 V 527.2623 l 125.65289,67.31403"
       id="path3893"
       style="fill:none;stroke:#999999;stroke-width:7.71618;stroke-linecap:butt;stroke-linejoin:miter;stroke-miterlimit:4;stroke-dasharray:none;stroke-opacity:1" />
    <path
       d="m 238.92026,594.57633 299.5475,-67.31403 h -425.2004 l 550.85329,67.31403"
       id="path3899"
       style="fill:none;stroke:#999999;stroke-width:7.71618;stroke-linecap:butt;stroke-linejoin:miter;stroke-miterlimit:4;stroke-dasharray:none;stroke-opacity:1" />
    <path
       d="M 664.12065,171.61975 538.46776,527.2623"
       id="path3895"
       style="fill:none;stroke:#999999;stroke-width:7.71618;stroke-linecap:butt;stroke-linejoin:miter;stroke-miterlimit:4;stroke-dasharray:none;stroke-opacity:1" />
    <path
       d="M 538.46776,105.42759 664.12065,594.57633"
       id="path3897"
       style="fill:none;stroke:#999999;stroke-width:7.71618;stroke-linecap:butt;stroke-linejoin:miter;stroke-miterlimit:4;stroke-dasharray:none;stroke-opacity:1" />
    <path
       d="M 113.26736,527.2623 538.46776,105.42759"
       id="path3903"
       style="fill:none;stroke:#999999;stroke-width:7.71618;stroke-linecap:butt;stroke-linejoin:miter;stroke-miterlimit:4;stroke-dasharray:none;stroke-opacity:1" />
    <path
       d="M 113.26736,105.42759 538.46776,527.2623"
       id="path3901"
       style="fill:none;stroke:#999999;stroke-width:7.71618;stroke-linecap:butt;stroke-linejoin:miter;stroke-miterlimit:4;stroke-dasharray:none;stroke-opacity:1" />
    <path
       d="M 533.41921,107.11045 H 112.7064"
       id="path3801"
       style="fill:none;stroke:#000000;stroke-width:7.71618;stroke-linecap:butt;stroke-linejoin:miter;stroke-miterlimit:4;stroke-dasharray:none;stroke-opacity:1" />
    <path
       d="M 238.92026,171.61975 H 664.12065 V 594.57633 H 238.92026 Z"
       id="path3870"
       style="fill:none;stroke:#000000;stroke-width:7.71618;stroke-linecap:butt;stroke-linejoin:miter;stroke-miterlimit:4;stroke-dasharray:none;stroke-opacity:1" />
    <path
       d="M 238.92026,171.61975 113.26736,105.42759 V 527.2623 l 125.6529,67.31403 z"
       id="path3872"
       style="fill:none;stroke:#000000;stroke-width:7.71618;stroke-linecap:butt;stroke-linejoin:miter;stroke-miterlimit:4;stroke-dasharray:none;stroke-opacity:1" />
    <path
       d="m 113.26736,105.42759 h 425.2004 l 125.65289,66.19216 H 238.92026 Z"
       id="path3874"
       style="fill:none;stroke:#000000;stroke-width:7.71618;stroke-linecap:butt;stroke-linejoin:miter;stroke-miterlimit:4;stroke-dasharray:none;stroke-opacity:1" />
    <path
       d="M 238.92026,171.61975 664.12065,594.57633"
       id="path3880"
       style="fill:none;stroke:#000000;stroke-width:7.71618;stroke-linecap:butt;stroke-linejoin:miter;stroke-miterlimit:4;stroke-dasharray:none;stroke-opacity:1" />
    <path
       d="M 238.92026,594.57633 664.12065,171.61975"
       id="path3882"
       style="fill:none;stroke:#000000;stroke-width:7.71618;stroke-linecap:butt;stroke-linejoin:miter;stroke-miterlimit:4;stroke-dasharray:none;stroke-opacity:1" />
    <path
       d="m 113.26736,105.42759 125.6529,489.14874"
       id="path3884"
       style="fill:none;stroke:#000000;stroke-width:7.71618;stroke-linecap:butt;stroke-linejoin:miter;stroke-miterlimit:4;stroke-dasharray:none;stroke-opacity:1" />
    <path
       d="M 113.26736,527.2623 238.92026,171.61975"
       id="path3886"
       style="fill:none;stroke:#000000;stroke-width:7.71618;stroke-linecap:butt;stroke-linejoin:miter;stroke-miterlimit:4;stroke-dasharray:none;stroke-opacity:1" />
    <path
       d="m 113.26736,105.42759 550.85329,66.19216"
       id="path3888"
       style="fill:none;stroke:#000000;stroke-width:7.71618;stroke-linecap:butt;stroke-linejoin:miter;stroke-miterlimit:4;stroke-dasharray:none;stroke-opacity:1" />
    <path
       d="m 238.92026,171.61975 299.5475,-66.19216"
       id="path3890"
       style="fill:none;stroke:#000000;stroke-width:7.71618;stroke-linecap:butt;stroke-linejoin:miter;stroke-miterlimit:4;stroke-dasharray:none;stroke-opacity:1" />
    <path
       d="m 477.03587,384.50232 c 0,13.09437 -10.61508,23.70946 -23.70946,23.70946 -13.09437,0 -23.70947,-10.61509 -23.70947,-23.70946 0,-13.09437 10.6151,-23.70947 23.70947,-23.70947 13.09438,0 23.70946,10.6151 23.70946,23.70947 z"
       id="path3905"
       style="fill:#000000;stroke:none;stroke-width:5.14412" />
    <path
       d="m 419.12472,561.40903 c 0,13.09436 -10.61509,23.70947 -23.70946,23.70947 -13.09437,0 -23.70947,-10.61511 -23.70947,-23.70947 0,-13.09437 10.6151,-23.70945 23.70947,-23.70945 13.09437,0 23.70946,10.61508 23.70946,23.70945 z"
       id="path3905-0"
       style="fill:#999999;stroke:none;stroke-width:5.14412" />
    <path
       d="m 562.1772,527.06398 c 0,13.09437 -10.61505,23.70947 -23.70944,23.70947 -13.09436,0 -23.70947,-10.6151 -23.70947,-23.70947 0,-13.09438 10.61511,-23.70947 23.70947,-23.70947 13.09439,0 23.70944,10.61509 23.70944,23.70947 z"
       id="path3905-9"
       style="fill:#999999;stroke:none;stroke-width:5.14412" />
    <path
       d="m 687.83008,595.13729 c 0,13.09432 -10.61501,23.70942 -23.70943,23.70942 -13.09437,0 -23.70946,-10.6151 -23.70946,-23.70942 0,-13.09436 10.61509,-23.70947 23.70946,-23.70947 13.09442,0 23.70943,10.61511 23.70943,23.70947 z"
       id="path3905-4"
       style="fill:#000000;stroke:none;stroke-width:5.14412" />
    <path
       d="m 687.83012,171.61975 c 0,13.09437 -10.61511,23.70947 -23.70947,23.70947 -13.09431,0 -23.70942,-10.6151 -23.70942,-23.70947 0,-13.09437 10.61511,-23.70947 23.70942,-23.70947 13.09436,0 23.70947,10.6151 23.70947,23.70947 z"
       id="path3905-8"
       style="fill:#000000;stroke:none;stroke-width:5.14412" />
    <path
       d="m 562.1772,105.98855 c 0,13.09437 -10.61505,23.70946 -23.70944,23.70946 -13.09436,0 -23.70947,-10.61509 -23.70947,-23.70946 0,-13.094389 10.61511,-23.709471 23.70947,-23.709471 13.09439,0 23.70944,10.615082 23.70944,23.709471 z"
       id="path3905-82"
       style="fill:#000000;stroke:none;stroke-width:5.14412" />
    <path
       d="m 413.52538,139.64557 c 0,13.09438 -10.6151,23.70948 -23.70946,23.70948 -13.09438,0 -23.70948,-10.6151 -23.70948,-23.70948 0,-13.09437 10.6151,-23.70946 23.70948,-23.70946 13.09436,0 23.70946,10.61509 23.70946,23.70946 z"
       id="path3905-45"
       style="fill:#000000;stroke:none;stroke-width:5.14412" />
    <path
       d="m 263.19066,171.61975 c 0,13.09437 -10.61509,23.70947 -23.70946,23.70947 -13.09437,0 -23.70947,-10.6151 -23.70947,-23.70947 0,-13.09437 10.6151,-23.70947 23.70947,-23.70947 13.09437,0 23.70946,10.6151 23.70946,23.70947 z"
       id="path3905-5"
       style="fill:#000000;stroke:none;stroke-width:5.14412" />
    <path
       d="m 137.53778,105.42759 c 0,13.09437 -10.61509,23.70948 -23.70946,23.70948 -13.09438,0 -23.709474,-10.61511 -23.709474,-23.70948 0,-13.09437 10.615094,-23.709467 23.709474,-23.709467 13.09437,0 23.70946,10.615097 23.70946,23.709467 z"
       id="path3905-1"
       style="fill:#000000;stroke:none;stroke-width:5.14412" />
    <path
       d="m 350.13798,317.46685 c 0,13.09437 -10.61509,23.70947 -23.70946,23.70947 -13.09438,0 -23.70948,-10.6151 -23.70948,-23.70947 0,-13.09437 10.6151,-23.70947 23.70948,-23.70947 13.09437,0 23.70946,10.6151 23.70946,23.70947 z"
       id="path3905-7"
       style="fill:#999999;stroke:none;stroke-width:5.14412" />
    <path
       d="m 199.80327,350.00197 c 0,13.09437 -10.61508,23.70946 -23.70946,23.70946 -13.09437,0 -23.70947,-10.61509 -23.70947,-23.70946 0,-13.09437 10.6151,-23.70946 23.70947,-23.70946 13.09438,0 23.70946,10.61509 23.70946,23.70946 z"
       id="path3905-11"
       style="fill:#000000;stroke:none;stroke-width:5.14412" />
    <path
       d="m 137.53778,527.2623 c 0,13.09437 -10.61509,23.70945 -23.70946,23.70945 -13.09438,0 -23.709474,-10.61508 -23.709474,-23.70945 0,-13.09439 10.615094,-23.70946 23.709474,-23.70946 13.09437,0 23.70946,10.61507 23.70946,23.70946 z"
       id="path3905-52"
       style="fill:#000000;stroke:none;stroke-width:5.14412" />
    <path
       d="m 263.19066,594.57633 c 0,13.09436 -10.61509,23.70947 -23.70946,23.70947 -13.09437,0 -23.70947,-10.61511 -23.70947,-23.70947 0,-13.09441 10.6151,-23.7094 23.70947,-23.7094 13.09437,0 23.70946,10.61499 23.70946,23.7094 z"
       id="path3905-76"
       style="fill:#000000;stroke:none;stroke-width:5.14412" />
    <path
       d="m 625.56458,350.56292 c 0,13.09437 -10.61511,23.70947 -23.70942,23.70947 -13.09435,0 -23.70947,-10.6151 -23.70947,-23.70947 0,-13.09438 10.61512,-23.70946 23.70947,-23.70946 13.09431,0 23.70942,10.61508 23.70942,23.70946 z"
       id="path3905-14"
       style="fill:#999999;stroke:none;stroke-width:5.14412" />
    <g
       transform="matrix(4.6297107,0,0,4.6297107,98.285742,106.07773)"
       id="text4010"
       style="font-style:normal;font-weight:normal;font-size:40px;line-height:125%;font-family:Sans;letter-spacing:0px;word-spacing:0px;fill:#000000;fill-opacity:1;stroke:none">
      <path
         d="m 132.14229,58.600571 -2.73926,-0.494141 c 0.30794,-1.102855 0.83789,-1.91926 1.58984,-2.449219 0.75195,-0.529936 1.86914,-0.79491 3.35157,-0.794922 1.34634,1.2e-5 2.34895,0.159354 3.00781,0.478028 0.65884,0.318696 1.12255,0.723318 1.39111,1.213867 0.26855,0.490569 0.40282,1.391122 0.40283,2.70166 l -0.0322,3.523438 c -1e-5,1.002607 0.0483,1.742026 0.14502,2.218261 0.0967,0.476238 0.27749,0.986492 0.54248,1.530762 h -2.98633 c -0.0788,-0.200521 -0.17546,-0.497721 -0.29004,-0.891602 -0.0501,-0.179035 -0.0859,-0.297199 -0.10742,-0.354492 -0.51563,0.501303 -1.06707,0.877279 -1.6543,1.12793 -0.58724,0.250651 -1.21387,0.375976 -1.87988,0.375977 -1.17448,-10e-7 -2.1001,-0.318685 -2.77686,-0.956055 -0.67676,-0.637369 -1.01513,-1.443032 -1.01513,-2.416992 0,-0.644528 0.15397,-1.219234 0.46191,-1.724121 0.30794,-0.504878 0.73942,-0.891596 1.29443,-1.160157 0.55501,-0.268548 1.35531,-0.503086 2.40088,-0.703613 1.4108,-0.264967 2.38834,-0.512037 2.93262,-0.741211 v -0.300781 c -10e-6,-0.58007 -0.14324,-0.993644 -0.42969,-1.240723 -0.28646,-0.247061 -0.82715,-0.370596 -1.62207,-0.370605 -0.53711,9e-6 -0.95606,0.105641 -1.25683,0.316894 -0.30079,0.211272 -0.54428,0.581877 -0.73047,1.111817 z m 4.03906,2.449218 c -0.38673,0.128912 -0.99903,0.282883 -1.83691,0.461914 -0.8379,0.179042 -1.38575,0.354497 -1.64356,0.526368 -0.39388,0.279301 -0.59082,0.633793 -0.59082,1.063476 0,0.422529 0.15755,0.787763 0.47266,1.095703 0.3151,0.307945 0.71614,0.461916 1.20312,0.461914 0.54427,2e-6 1.06347,-0.179034 1.55762,-0.537109 0.36523,-0.272133 0.60514,-0.60514 0.71973,-0.999023 0.0788,-0.257809 0.11815,-0.748369 0.11816,-1.47168 z"
         id="path4015"
         style="font-weight:bold;font-size:22px;-inkscape-font-specification:'Sans Bold'" />
    </g>
    <g
       transform="matrix(4.6297107,0,0,4.6297107,-169.84196,366.82913)"
       id="text4010-2"
       style="font-style:normal;font-weight:normal;font-size:40px;line-height:125%;font-family:Sans;letter-spacing:0px;word-spacing:0px;fill:#000000;fill-opacity:1;stroke:none">
      <path
         d="m 132.14229,58.600571 -2.73926,-0.494141 c 0.30794,-1.102855 0.83789,-1.91926 1.58984,-2.449219 0.75195,-0.529936 1.86914,-0.79491 3.35157,-0.794922 1.34634,1.2e-5 2.34895,0.159354 3.00781,0.478028 0.65884,0.318696 1.12255,0.723318 1.39111,1.213867 0.26855,0.490569 0.40282,1.391122 0.40283,2.70166 l -0.0322,3.523438 c -1e-5,1.002607 0.0483,1.742026 0.14502,2.218261 0.0967,0.476238 0.27749,0.986492 0.54248,1.530762 h -2.98633 c -0.0788,-0.200521 -0.17546,-0.497721 -0.29004,-0.891602 -0.0501,-0.179035 -0.0859,-0.297199 -0.10742,-0.354492 -0.51563,0.501303 -1.06707,0.877279 -1.6543,1.12793 -0.58724,0.250651 -1.21387,0.375976 -1.87988,0.375977 -1.17448,-10e-7 -2.1001,-0.318685 -2.77686,-0.956055 -0.67676,-0.637369 -1.01513,-1.443032 -1.01513,-2.416992 0,-0.644528 0.15397,-1.219234 0.46191,-1.724121 0.30794,-0.504878 0.73942,-0.891596 1.29443,-1.160157 0.55501,-0.268548 1.35531,-0.503086 2.40088,-0.703613 1.4108,-0.264967 2.38834,-0.512037 2.93262,-0.741211 v -0.300781 c -10e-6,-0.58007 -0.14324,-0.993644 -0.42969,-1.240723 -0.28646,-0.247061 -0.82715,-0.370596 -1.62207,-0.370605 -0.53711,9e-6 -0.95606,0.105641 -1.25683,0.316894 -0.30079,0.211272 -0.54428,0.581877 -0.73047,1.111817 z m 4.03906,2.449218 c -0.38673,0.128912 -0.99903,0.282883 -1.83691,0.461914 -0.8379,0.179042 -1.38575,0.354497 -1.64356,0.526368 -0.39388,0.279301 -0.59082,0.633793 -0.59082,1.063476 0,0.422529 0.15755,0.787763 0.47266,1.095703 0.3151,0.307945 0.71614,0.461916 1.20312,0.461914 0.54427,2e-6 1.06347,-0.179034 1.55762,-0.537109 0.36523,-0.272133 0.60514,-0.60514 0.71973,-0.999023 0.0788,-0.257809 0.11815,-0.748369 0.11816,-1.47168 z"
         id="path4015-3"
         style="font-weight:bold;font-size:22px;-inkscape-font-specification:'Sans Bold'" />
    </g>
    <g
       transform="matrix(5.1441229,0,0,5.1441229,-537.61912,303.65467)"
       id="text4010-22"
       style="font-style:normal;font-weight:normal;font-size:40px;line-height:125%;font-family:Sans;letter-spacing:0px;word-spacing:0px;fill:#000000;fill-opacity:1;stroke:none">
      <path
         d="m 132.37271,58.822934 -2.46533,-0.444727 c 0.27714,-0.992569 0.7541,-1.727334 1.43085,-2.204297 0.67676,-0.476942 1.68223,-0.715419 3.01642,-0.71543 1.2117,1.1e-5 2.11405,0.143419 2.70703,0.430226 0.59295,0.286826 1.01029,0.650986 1.252,1.09248 0.24169,0.441512 0.36253,1.25201 0.36254,2.431494 l -0.029,3.171094 c -1e-5,0.902346 0.0435,1.567824 0.13052,1.996435 0.087,0.428614 0.24974,0.887843 0.48823,1.377686 h -2.68769 c -0.0709,-0.180469 -0.15792,-0.447949 -0.26104,-0.802442 -0.0451,-0.161131 -0.0773,-0.267479 -0.0967,-0.319043 -0.46407,0.451173 -0.96036,0.789551 -1.48887,1.015137 -0.52852,0.225586 -1.09248,0.338379 -1.69189,0.33838 -1.05703,-10e-7 -1.89009,-0.286817 -2.49917,-0.86045 -0.60909,-0.573632 -0.91362,-1.298729 -0.91362,-2.175293 0,-0.580075 0.13857,-1.09731 0.41572,-1.551709 0.27714,-0.45439 0.66548,-0.802436 1.16498,-1.044141 0.49951,-0.241693 1.21978,-0.452777 2.1608,-0.633252 1.26972,-0.23847 2.1495,-0.460833 2.63935,-0.66709 V 58.98729 c 0,-0.522063 -0.12891,-0.89428 -0.38672,-1.116651 -0.25781,-0.222355 -0.74443,-0.333537 -1.45986,-0.333545 -0.4834,8e-6 -0.86045,0.09508 -1.13115,0.285205 -0.27071,0.190145 -0.48985,0.523689 -0.65742,1.000635 z m 3.63516,2.204296 c -0.34806,0.116021 -0.89913,0.254595 -1.65322,0.415723 -0.75411,0.161138 -1.24718,0.319047 -1.47921,0.473731 -0.35449,0.251371 -0.53174,0.570414 -0.53174,0.957129 0,0.380276 0.1418,0.708986 0.4254,0.986132 0.28359,0.277151 0.64452,0.415725 1.08281,0.415723 0.48984,2e-6 0.95712,-0.161131 1.40185,-0.483398 0.32871,-0.24492 0.54463,-0.544626 0.64776,-0.899121 0.0709,-0.232028 0.10634,-0.673532 0.10635,-1.324512 z"
         id="path4015-1"
         style="font-weight:bold;font-size:22px;-inkscape-font-specification:'Sans Bold'" />
    </g>
  </g>
</svg>
